<svg width="330" height="330" viewBox="0 0 330 330" fill="none" xmlns="http://www.w3.org/2000/svg">
<path d="M166.5 176.5L144.5 153.5H237V231L212.5 248V220L215 218V176.5H166.5Z" fill="url(#paint0_linear_1007_1569)"/>
<path d="M196.5 189.5H176V248L166.5 255.5L95 202V131.5L166.5 76.5L219.5 115.5L237 102.5L166.5 49L73 120.5V214L166.5 283.5L196.5 261V189.5Z" fill="url(#paint1_linear_1007_1569)"/>
<path d="M160 205V232L110.5 196.5V139L166.5 95L207 125L188 139L166 121.5L131.5 148V185.5L160 205Z" fill="url(#paint2_linear_1007_1569)"/>
<path d="M165 0C256.127 0 330 73.873 330 165C330 256.127 256.127 330 165 330C73.873 330 0 256.127 0 165C0 73.873 73.873 0 165 0ZM164.5 7C77.5152 7 7 77.5152 7 164.5C7 251.485 77.5152 322 164.5 322C251.485 322 322 251.485 322 164.5C322 77.5152 251.485 7 164.5 7Z" fill="url(#paint3_linear_1007_1569)"/>
<defs>
<linearGradient id="paint0_linear_1007_1569" x1="237" y1="104" x2="78.5" y2="217" gradientUnits="userSpaceOnUse">
<stop stop-color="#CCA176"/>
<stop offset="1" stop-color="#785135"/>
</linearGradient>
<linearGradient id="paint1_linear_1007_1569" x1="237" y1="104" x2="78.5" y2="217" gradientUnits="userSpaceOnUse">
<stop stop-color="#CCA176"/>
<stop offset="1" stop-color="#785135"/>
</linearGradient>
<linearGradient id="paint2_linear_1007_1569" x1="237" y1="104" x2="78.5" y2="217" gradientUnits="userSpaceOnUse">
<stop stop-color="#CCA176"/>
<stop offset="1" stop-color="#785135"/>
</linearGradient>
<linearGradient id="paint3_linear_1007_1569" x1="250" y1="24.5" x2="68.5" y2="301.5" gradientUnits="userSpaceOnUse">
<stop stop-color="#D7B492"/>
<stop offset="1" stop-color="#715138"/>
</linearGradient>
</defs>
</svg>
